<svg xmlns="http://www.w3.org/2000/svg" xmlns:xlink="http://www.w3.org/1999/xlink" width="48" zoomAndPan="magnify" viewBox="0 0 36 36.000001" height="48" preserveAspectRatio="xMidYMid meet" version="1.0"><defs><clipPath id="1a1b8977aa"><path d="M 0.488281 0 L 35.511719 0 L 35.511719 35.027344 L 0.488281 35.027344 Z M 0.488281 0 " clip-rule="nonzero"/></clipPath></defs><g clip-path="url(#1a1b8977aa)"><rect x="-3.6" width="43.2" fill="#ffffff" y="-3.6" height="43.200001" fill-opacity="1"/><rect x="-3.6" width="43.2" fill="#ffffff" y="-3.6" height="43.200001" fill-opacity="1"/><rect x="-3.6" width="43.2" fill="#ffffff" y="-3.6" height="43.200001" fill-opacity="1"/></g><path fill="#605cb8" d="M 8.957031 25.234375 L 8.957031 2.773438 L 17.953125 2.773438 L 17.953125 7.113281 L 13.53125 7.113281 L 13.53125 11.480469 L 17.769531 11.480469 L 17.769531 15.714844 L 13.53125 15.714844 L 13.53125 20.867188 L 18.238281 20.867188 L 18.238281 25.234375 Z M 8.957031 25.234375 " fill-opacity="1" fill-rule="nonzero"/><path fill="#00d1b2" d="M 20.667969 33.585938 L 20.667969 15.660156 L 18.03125 15.660156 L 18.03125 11.394531 L 27.746094 11.394531 L 27.746094 15.660156 L 25.109375 15.660156 L 25.109375 33.585938 Z M 20.667969 33.585938 " fill-opacity="1" fill-rule="nonzero"/></svg>