<svg xmlns="http://www.w3.org/2000/svg" xmlns:xlink="http://www.w3.org/1999/xlink" width="101" zoomAndPan="magnify" viewBox="0 0 75.75 38.999999" height="52" preserveAspectRatio="xMidYMid meet" version="1.0"><defs><clipPath id="ae1c921375"><path d="M 0 0.0625 L 75.5 0.0625 L 75.5 38.933594 L 0 38.933594 Z M 0 0.0625 " clip-rule="nonzero"/></clipPath></defs><g clip-path="url(#ae1c921375)"><rect x="-7.575" width="90.9" fill="#ffffff" y="-3.9" height="46.799999" fill-opacity="1"/><rect x="-7.575" width="90.9" fill="#ffffff" y="-3.9" height="46.799999" fill-opacity="1"/></g><path fill="#605cb8" d="M 11.566406 11.332031 L 11.566406 14.207031 L 6.621094 14.207031 L 6.621094 17.066406 L 11.359375 17.066406 L 11.359375 19.941406 L 6.621094 19.941406 L 6.621094 22.839844 L 11.566406 22.839844 L 11.566406 25.714844 L 3.335938 25.714844 L 3.335938 11.332031 Z M 11.566406 11.332031 " fill-opacity="1" fill-rule="nonzero"/><path fill="#605cb8" d="M 13.101562 24.609375 C 12.265625 23.699219 11.847656 22.578125 11.847656 21.253906 C 11.847656 19.925781 12.265625 18.804688 13.101562 17.886719 C 13.941406 16.96875 15.003906 16.507812 16.296875 16.507812 C 17.480469 16.507812 18.457031 16.882812 19.222656 17.625 L 19.222656 16.769531 L 22.308594 16.769531 L 22.308594 25.714844 L 19.261719 25.714844 L 19.261719 24.703125 L 19.222656 24.703125 C 18.457031 25.550781 17.480469 25.976562 16.296875 25.976562 C 15.003906 25.976562 13.941406 25.519531 13.101562 24.609375 Z M 15.726562 19.734375 C 15.328125 20.128906 15.125 20.636719 15.125 21.253906 C 15.125 21.867188 15.316406 22.371094 15.699219 22.761719 C 16.082031 23.152344 16.589844 23.34375 17.21875 23.34375 C 17.824219 23.34375 18.320312 23.148438 18.707031 22.75 C 19.097656 22.355469 19.292969 21.855469 19.292969 21.253906 C 19.292969 20.636719 19.089844 20.128906 18.691406 19.734375 C 18.289062 19.335938 17.800781 19.140625 17.21875 19.140625 C 16.625 19.140625 16.125 19.335938 15.726562 19.734375 Z M 15.726562 19.734375 " fill-opacity="1" fill-rule="nonzero"/><path fill="#605cb8" d="M 27.335938 16.507812 C 27.847656 16.507812 28.351562 16.570312 28.847656 16.6875 C 29.347656 16.800781 29.722656 16.914062 29.964844 17.03125 L 30.332031 17.207031 L 29.316406 19.226562 C 28.621094 18.855469 27.960938 18.667969 27.335938 18.667969 C 26.984375 18.667969 26.734375 18.707031 26.589844 18.785156 C 26.445312 18.859375 26.375 19.003906 26.375 19.210938 C 26.375 19.257812 26.378906 19.304688 26.390625 19.351562 C 26.402344 19.398438 26.421875 19.441406 26.457031 19.484375 C 26.492188 19.523438 26.523438 19.554688 26.550781 19.585938 C 26.582031 19.617188 26.632812 19.648438 26.703125 19.679688 C 26.773438 19.714844 26.828125 19.742188 26.871094 19.761719 C 26.914062 19.777344 26.976562 19.804688 27.070312 19.839844 C 27.164062 19.875 27.230469 19.898438 27.277344 19.917969 C 27.324219 19.933594 27.402344 19.960938 27.511719 19.996094 C 27.625 20.03125 27.707031 20.054688 27.769531 20.066406 C 28.128906 20.171875 28.441406 20.289062 28.707031 20.417969 C 28.976562 20.542969 29.257812 20.71875 29.554688 20.9375 C 29.851562 21.160156 30.082031 21.4375 30.242188 21.773438 C 30.40625 22.113281 30.488281 22.496094 30.488281 22.921875 C 30.488281 24.957031 29.074219 25.976562 26.25 25.976562 C 25.613281 25.976562 25.003906 25.878906 24.429688 25.683594 C 23.855469 25.484375 23.4375 25.285156 23.179688 25.089844 L 22.800781 24.773438 L 24.050781 22.660156 C 24.144531 22.746094 24.269531 22.84375 24.417969 22.953125 C 24.570312 23.0625 24.84375 23.210938 25.238281 23.402344 C 25.632812 23.59375 25.976562 23.691406 26.269531 23.691406 C 26.90625 23.691406 27.226562 23.476562 27.226562 23.046875 C 27.226562 22.847656 27.144531 22.695312 26.980469 22.589844 C 26.820312 22.476562 26.542969 22.351562 26.15625 22.210938 C 25.765625 22.070312 25.460938 21.941406 25.242188 21.828125 C 24.679688 21.535156 24.238281 21.207031 23.910156 20.839844 C 23.589844 20.476562 23.425781 19.988281 23.425781 19.382812 C 23.425781 18.480469 23.777344 17.773438 24.480469 17.269531 C 25.183594 16.761719 26.136719 16.507812 27.335938 16.507812 Z M 27.335938 16.507812 " fill-opacity="1" fill-rule="nonzero"/><path fill="#605cb8" d="M 40.109375 21.667969 L 33.628906 21.667969 C 33.628906 22.296875 33.832031 22.761719 34.234375 23.0625 C 34.640625 23.367188 35.082031 23.515625 35.558594 23.515625 C 36.0625 23.515625 36.457031 23.453125 36.746094 23.320312 C 37.039062 23.183594 37.367188 22.917969 37.742188 22.527344 L 39.976562 23.636719 C 39.042969 25.195312 37.496094 25.976562 35.335938 25.976562 C 33.984375 25.976562 32.828125 25.515625 31.867188 24.59375 C 30.902344 23.667969 30.417969 22.554688 30.417969 21.253906 C 30.417969 19.953125 30.902344 18.835938 31.867188 17.90625 C 32.828125 16.976562 33.984375 16.507812 35.335938 16.507812 C 36.753906 16.507812 37.910156 16.917969 38.796875 17.738281 C 39.6875 18.558594 40.132812 19.726562 40.132812 21.253906 C 40.132812 21.460938 40.125 21.601562 40.109375 21.667969 Z M 33.714844 19.957031 L 37.117188 19.957031 C 37.046875 19.496094 36.859375 19.140625 36.5625 18.886719 C 36.265625 18.636719 35.886719 18.511719 35.425781 18.511719 C 34.914062 18.511719 34.507812 18.648438 34.203125 18.914062 C 33.902344 19.183594 33.738281 19.53125 33.714844 19.957031 Z M 33.714844 19.957031 " fill-opacity="1" fill-rule="nonzero"/><path fill="#00d1b2" d="M 41.140625 16.769531 L 41.140625 13.441406 L 44.226562 13.441406 L 44.226562 16.769531 L 46.109375 16.769531 L 46.109375 19.125 L 44.226562 19.125 L 44.226562 21.96875 C 44.226562 22.792969 44.457031 23.203125 44.925781 23.203125 C 45.039062 23.203125 45.160156 23.183594 45.289062 23.136719 C 45.417969 23.089844 45.515625 23.042969 45.589844 22.996094 L 45.691406 22.921875 L 46.460938 25.417969 C 45.792969 25.789062 45.039062 25.976562 44.1875 25.976562 C 43.609375 25.976562 43.109375 25.875 42.691406 25.671875 C 42.273438 25.46875 41.957031 25.195312 41.742188 24.851562 C 41.523438 24.507812 41.371094 24.148438 41.277344 23.773438 C 41.1875 23.394531 41.140625 22.988281 41.140625 22.558594 L 41.140625 19.125 L 39.847656 19.125 L 39.847656 16.769531 Z M 41.140625 16.769531 " fill-opacity="1" fill-rule="nonzero"/><path fill="#00d1b2" d="M 46.542969 25.714844 L 46.542969 16.769531 L 49.632812 16.769531 L 49.632812 18.058594 L 49.664062 18.058594 C 49.6875 18.015625 49.726562 17.957031 49.777344 17.886719 C 49.832031 17.816406 49.941406 17.695312 50.117188 17.519531 C 50.292969 17.347656 50.476562 17.191406 50.675781 17.050781 C 50.875 16.910156 51.128906 16.785156 51.445312 16.675781 C 51.757812 16.566406 52.078125 16.507812 52.402344 16.507812 C 52.742188 16.507812 53.070312 16.554688 53.394531 16.648438 C 53.722656 16.742188 53.960938 16.832031 54.109375 16.925781 L 54.355469 17.066406 L 53.066406 19.679688 C 52.683594 19.355469 52.148438 19.191406 51.464844 19.191406 C 51.089844 19.191406 50.773438 19.273438 50.503906 19.4375 C 50.234375 19.601562 50.046875 19.800781 49.933594 20.03125 C 49.828125 20.265625 49.75 20.464844 49.699219 20.625 C 49.65625 20.785156 49.632812 20.914062 49.632812 21.007812 L 49.632812 25.714844 Z M 46.542969 25.714844 " fill-opacity="1" fill-rule="nonzero"/><path fill="#00d1b2" d="M 54.878906 24.609375 C 54.042969 23.699219 53.625 22.578125 53.625 21.253906 C 53.625 19.925781 54.042969 18.804688 54.878906 17.886719 C 55.714844 16.96875 56.78125 16.507812 58.070312 16.507812 C 59.257812 16.507812 60.234375 16.882812 61 17.625 L 61 16.769531 L 64.085938 16.769531 L 64.085938 25.714844 L 61.035156 25.714844 L 61.035156 24.703125 L 61 24.703125 C 60.234375 25.550781 59.257812 25.976562 58.070312 25.976562 C 56.78125 25.976562 55.714844 25.519531 54.878906 24.609375 Z M 57.503906 19.734375 C 57.101562 20.128906 56.902344 20.636719 56.902344 21.253906 C 56.902344 21.867188 57.09375 22.371094 57.476562 22.761719 C 57.859375 23.152344 58.367188 23.34375 58.996094 23.34375 C 59.601562 23.34375 60.097656 23.148438 60.484375 22.75 C 60.871094 22.355469 61.066406 21.855469 61.066406 21.253906 C 61.066406 20.636719 60.867188 20.128906 60.46875 19.734375 C 60.066406 19.335938 59.578125 19.140625 58.996094 19.140625 C 58.402344 19.140625 57.902344 19.335938 57.503906 19.734375 Z M 57.503906 19.734375 " fill-opacity="1" fill-rule="nonzero"/><path fill="#00d1b2" d="M 65.515625 11.785156 C 65.875 11.425781 66.304688 11.242188 66.804688 11.242188 C 67.304688 11.242188 67.734375 11.425781 68.09375 11.785156 C 68.453125 12.144531 68.636719 12.574219 68.636719 13.074219 C 68.636719 13.574219 68.453125 14.003906 68.09375 14.363281 C 67.734375 14.726562 67.304688 14.90625 66.804688 14.90625 C 66.304688 14.90625 65.875 14.726562 65.515625 14.363281 C 65.15625 14.003906 64.976562 13.574219 64.976562 13.074219 C 64.976562 12.574219 65.15625 12.144531 65.515625 11.785156 Z M 65.21875 16.769531 L 65.21875 25.714844 L 68.308594 25.714844 L 68.308594 16.769531 Z M 65.21875 16.769531 " fill-opacity="1" fill-rule="nonzero"/><path fill="#00d1b2" d="M 69.523438 10.722656 L 72.613281 10.722656 L 72.613281 25.714844 L 69.523438 25.714844 Z M 69.523438 10.722656 " fill-opacity="1" fill-rule="nonzero"/></svg>