<?xml version="1.0" ?>
<!-- Uploaded to: SVG Repo, www.svgrepo.com, Generator: SVG Repo Mixer Tools -->
<svg width="800px" height="800px" viewBox="0 0 512 512" version="1.1" xml:space="preserve" xmlns="http://www.w3.org/2000/svg" xmlns:xlink="http://www.w3.org/1999/xlink">
<style type="text/css">
	.st0{display:none;}
	.st1{fill:#FFE2D2;}
	.st2{fill:#FFDE83;}
	.st3{fill:#F57070;}
	.st4{fill:#DBDBEF;}
	.st5{fill:#BCE2FF;}
	.st6{fill:#48446D;}
	.st7{fill:#6E78FF;}
	.st8{fill:#FFBE83;}
	.st9{fill:#F5949E;}
	.st10{fill:#D0FF67;}
	.st11{fill:#C69C6D;}
	.st12{fill:#C5BDD3;}
	.st13{fill:#FFE2B8;}
	.st14{fill:#F54670;}
</style>
<g class="st0" id="Layer_1"/>
<g id="Layer_2">
<g>
<path class="st4" d="M292.39,289.48v13.47c-0.17,0.01-0.34,0.01-0.5,0.03c-0.17,0.02-0.33,0.05-0.5,0.08    c-3.28,0.57-5.77,3.43-5.77,6.88v22.44c0,3.77-3.06,6.83-6.83,6.83H139.43c-1.86,0-3.64,0.73-4.95,2.05L90,385.74v-12.56    c0-3.87-3.13-7-7-7c-0.16,0-0.32,0.01-0.48,0.02c-0.17,0.01-0.34,0.03-0.5,0.06c-0.17,0.02-0.33,0.06-0.5,0.09v-13.14H83    c3.87,0,7-3.14,7-7c0-3.87-3.13-7-7-7H64.32c-3.76,0-6.82-3.06-6.82-6.83V186.92c0-3.76,3.06-6.82,6.82-6.82h148.06v29.08h-9.3    c-0.7-3.12-3.49-5.45-6.82-5.45c-9.17,0-17.84,3.21-24.7,8.99c-6.86-5.78-15.53-8.99-24.7-8.99c-21.19,0-38.44,17.24-38.44,38.43    c0,19.44,12.51,40.75,37.19,63.34c0.13,0.12,0.26,0.24,0.4,0.35c0.31,0.27,0.63,0.53,0.95,0.79l0.25,0.2    c0.56,0.46,1.12,0.92,1.7,1.35c0.44,0.32,0.89,0.62,1.35,0.92l0.1,0.07c0.59,0.39,1.18,0.77,1.8,1.13    c0.48,0.28,0.96,0.55,1.45,0.81c0.65,0.34,1.31,0.66,1.98,0.97c0.47,0.22,0.95,0.43,1.43,0.62c0.66,0.27,1.37,0.54,2.15,0.8    l0.16,0.06c0.41,0.13,0.81,0.27,1.21,0.39c0.88,0.26,1.72,0.46,2.36,0.61l0.27,0.07c0.33,0.08,0.66,0.15,0.99,0.22    c1,0.19,1.94,0.32,2.66,0.41l0.17,0.02c0.28,0.04,0.56,0.08,0.85,0.11c1.3,0.13,2.51,0.19,3.71,0.19c0.01,0,0.01,0,0.02,0    c1.19,0,2.4-0.06,3.71-0.19c0.29-0.03,0.58-0.07,0.86-0.11l0.17-0.03c0.76-0.09,1.67-0.21,2.65-0.4c0.33-0.07,0.67-0.15,1-0.23    l0.28-0.06c0.63-0.15,1.47-0.35,2.33-0.61c0.42-0.12,0.82-0.26,1.23-0.4l0.16-0.05c0.79-0.27,1.49-0.53,2.13-0.8    c0.49-0.19,0.97-0.4,1.46-0.63c0.65-0.3,1.3-0.62,1.93-0.95c0.51-0.27,1.01-0.54,1.5-0.83c0.6-0.35,1.18-0.73,1.76-1.11l0.11-0.07    c0.46-0.31,0.91-0.61,1.36-0.94c0.57-0.41,1.12-0.86,1.69-1.33l0.26-0.21c0.32-0.26,0.64-0.52,0.94-0.79    c0.15-0.12,0.3-0.24,0.42-0.35c3.96-3.63,7.66-7.27,10.98-10.82c2.59-2.77,2.5-7.07-0.16-9.73l6.26-6.96    c3.44,6.8,10.48,11.49,18.61,11.49H292.39z"/>
<path class="st2" d="M447.68,116.37H333.06c-3.69,0-6.72-2.87-6.97-6.5c-0.02-0.17-0.03-0.33-0.03-0.5s0.01-0.33,0.03-0.5h-10.8    c0.02,0.17,0.03,0.33,0.03,0.5s-0.01,0.33-0.03,0.5c-0.12,1.66-0.84,3.26-2.02,4.44c-0.32,0.33-0.68,0.62-1.06,0.88    c-0.38,0.25-0.79,0.46-1.21,0.64c-0.43,0.17-0.87,0.31-1.31,0.4c-0.45,0.09-0.91,0.14-1.37,0.14c-0.46,0-0.92-0.05-1.37-0.14    c-0.45-0.09-0.89-0.23-1.31-0.4c-0.42-0.18-0.83-0.39-1.21-0.64c-0.38-0.26-0.74-0.55-1.06-0.88c-0.32-0.32-0.62-0.68-0.87-1.06    s-0.47-0.79-0.64-1.21c-0.18-0.42-0.31-0.86-0.4-1.31c-0.06-0.28-0.09-0.57-0.11-0.86c-0.02-0.17-0.03-0.33-0.03-0.5    s0.01-0.33,0.03-0.5h-15.07c0.02,0.17,0.03,0.33,0.03,0.5s-0.01,0.33-0.03,0.5c-0.25,3.63-3.28,6.5-6.97,6.5h-46.1    c-3.77,0-6.83,3.06-6.83,6.82v145.47c0,3.76,3.06,6.82,6.83,6.82h139.36c1.86,0,3.64,0.73,4.95,2.05L422,322.01v-39.53    c0-3.87,3.13-7,7-7h18.68c3.76,0,6.82-3.06,6.82-6.82V123.19C454.5,119.43,451.44,116.37,447.68,116.37z M401.41,192.83    c-1.1,3.71-4.99,5.83-8.7,4.73c-0.06-0.02-0.12-0.04-0.18-0.06l-4.15,6.13c0.46,0.28,0.89,0.61,1.27,0.99    c0.33,0.32,0.62,0.68,0.87,1.06c0.26,0.38,0.47,0.79,0.65,1.21c0.17,0.42,0.31,0.86,0.4,1.31c0.09,0.45,0.13,0.91,0.13,1.37    c0,1.84-0.74,3.65-2.05,4.95c-1.3,1.3-3.1,2.05-4.95,2.05c-0.45,0-0.91-0.05-1.36-0.14c-0.45-0.09-0.89-0.22-1.31-0.4    c-0.43-0.17-0.83-0.39-1.21-0.64c-0.09-0.06-0.17-0.14-0.25-0.21l-4.22,6.24c0.08,0.06,0.16,0.12,0.23,0.19    c2.81,2.66,2.93,7.09,0.28,9.89c-3.19,3.37-6.71,6.82-10.46,10.26c-0.14,0.13-0.28,0.25-0.41,0.36c-0.31,0.26-0.63,0.53-0.95,0.79    l-0.25,0.2c-0.57,0.47-1.12,0.92-1.7,1.34c-0.44,0.32-0.89,0.63-1.35,0.93l-0.1,0.07c-0.59,0.39-1.18,0.77-1.79,1.12    c-0.49,0.29-0.97,0.55-1.47,0.81c-0.64,0.35-1.3,0.67-1.96,0.97c-0.48,0.22-0.96,0.43-1.44,0.63c-0.66,0.27-1.36,0.53-2.14,0.8    l-0.16,0.05c-0.41,0.14-0.81,0.27-1.22,0.4c-0.87,0.26-1.71,0.46-2.35,0.6l-0.27,0.07c-0.33,0.08-0.67,0.16-1,0.22    c-0.99,0.2-1.94,0.32-2.66,0.41l-0.17,0.03c-0.28,0.04-0.56,0.08-0.85,0.11c-1.3,0.12-2.51,0.18-3.71,0.18c-0.01,0-0.01,0-0.02,0    c-1.19,0-2.4-0.06-3.7-0.18c-0.3-0.03-0.59-0.07-0.87-0.11l-0.18-0.03c-0.7-0.09-1.65-0.21-2.63-0.41    c-0.34-0.06-0.68-0.14-1.01-0.22l-0.27-0.07c-0.64-0.14-1.48-0.35-2.34-0.6c-0.42-0.13-0.82-0.26-1.23-0.4l-0.16-0.06    c-0.79-0.27-1.49-0.53-2.14-0.79c-0.48-0.2-0.96-0.41-1.45-0.63c-0.65-0.3-1.3-0.62-1.94-0.96c-0.5-0.26-1-0.53-1.49-0.82    c-0.59-0.35-1.18-0.73-1.77-1.12l-0.12-0.08c-0.45-0.3-0.9-0.6-1.34-0.92c-0.57-0.42-1.12-0.86-1.66-1.31l-0.29-0.23    c-0.32-0.26-0.64-0.52-0.95-0.8c-0.15-0.12-0.29-0.24-0.43-0.37c-24.65-22.57-37.15-43.88-37.15-63.31    c0-21.2,17.24-38.44,38.43-38.44c9.17,0,17.84,3.21,24.7,9c6.86-5.79,15.53-9,24.7-9c21.19,0,38.44,17.24,38.44,38.44    C403.58,183.1,402.85,187.95,401.41,192.83z"/>
<path class="st6" d="M403.58,178.43c0,4.67-0.73,9.52-2.17,14.4c-1.1,3.71-4.99,5.83-8.7,4.73c-0.06-0.02-0.12-0.04-0.18-0.06    c-0.33-0.11-0.65-0.24-0.95-0.39c-2.99-1.48-4.58-4.93-3.6-8.24c1.06-3.6,1.6-7.11,1.6-10.44c0-13.48-10.97-24.44-24.44-24.44    c-7.52,0-14.52,3.41-19.2,9.35c-1.33,1.69-3.35,2.67-5.5,2.67c-2.14,0-4.17-0.98-5.5-2.67c-4.68-5.94-11.67-9.35-19.2-9.35    c-13.47,0-24.43,10.96-24.43,24.44c0,15.32,10.93,33.11,32.5,52.89c0.12,0.1,0.22,0.19,0.33,0.28c0.16,0.15,0.33,0.28,0.51,0.42    l0.33,0.28c0.38,0.3,0.72,0.59,1.07,0.85c0.27,0.19,0.54,0.37,0.81,0.55l0.13,0.08c0.36,0.25,0.74,0.49,1.12,0.71    c0.31,0.18,0.62,0.35,0.93,0.52c0.42,0.22,0.83,0.42,1.24,0.61c0.3,0.14,0.61,0.27,0.92,0.4c0.45,0.18,0.9,0.35,1.35,0.5    l0.17,0.06c0.24,0.08,0.47,0.16,0.71,0.23c0.49,0.15,0.99,0.27,1.49,0.38l0.41,0.1c0.13,0.03,0.27,0.07,0.4,0.09    c0.56,0.11,1.16,0.19,1.68,0.26c0.18,0.02,0.36,0.04,0.53,0.07l0.17,0.03c0.79,0.07,1.54,0.11,2.26,0.11h0.15    c0.72,0,1.47-0.04,2.29-0.12l0.13-0.02c0.17-0.02,0.35-0.05,0.53-0.07c0.52-0.07,1.13-0.15,1.68-0.26    c0.14-0.02,0.27-0.06,0.4-0.09l0.41-0.1c0.5-0.11,1-0.23,1.49-0.38c0.24-0.07,0.47-0.15,0.71-0.23l0.17-0.06    c0.45-0.15,0.91-0.32,1.36-0.5c0.31-0.13,0.61-0.26,0.91-0.4c0.41-0.19,0.83-0.39,1.24-0.61c0.32-0.17,0.63-0.34,0.94-0.52    c0.37-0.22,0.75-0.46,1.12-0.71l0.12-0.08c0.27-0.18,0.54-0.36,0.81-0.55c0.36-0.27,0.71-0.56,1.06-0.85l0.34-0.27    c0.18-0.14,0.35-0.28,0.52-0.43c0.11-0.1,0.22-0.19,0.33-0.28c3.45-3.17,6.68-6.34,9.61-9.43c2.35-2.49,6.09-2.87,8.86-1.08    c0.28,0.18,0.55,0.38,0.8,0.61c0.08,0.06,0.16,0.12,0.23,0.19c2.81,2.66,2.93,7.09,0.28,9.89c-3.19,3.37-6.71,6.82-10.46,10.26    c-0.14,0.13-0.28,0.25-0.41,0.36c-0.31,0.26-0.63,0.53-0.95,0.79l-0.25,0.2c-0.57,0.47-1.12,0.92-1.7,1.34    c-0.44,0.32-0.89,0.63-1.35,0.93l-0.1,0.07c-0.59,0.39-1.18,0.77-1.79,1.12c-0.49,0.29-0.97,0.55-1.47,0.81    c-0.64,0.35-1.3,0.67-1.96,0.97c-0.48,0.22-0.96,0.43-1.44,0.63c-0.66,0.27-1.36,0.53-2.14,0.8l-0.16,0.05    c-0.41,0.14-0.81,0.27-1.22,0.4c-0.87,0.26-1.71,0.46-2.35,0.6l-0.27,0.07c-0.33,0.08-0.67,0.16-1,0.22    c-0.99,0.2-1.94,0.32-2.66,0.41l-0.17,0.03c-0.28,0.04-0.56,0.08-0.85,0.11c-1.3,0.12-2.51,0.18-3.71,0.18c-0.01,0-0.01,0-0.02,0    c-1.19,0-2.4-0.06-3.7-0.18c-0.3-0.03-0.59-0.07-0.87-0.11l-0.18-0.03c-0.7-0.09-1.65-0.21-2.63-0.41    c-0.34-0.06-0.68-0.14-1.01-0.22l-0.27-0.07c-0.64-0.14-1.48-0.35-2.34-0.6c-0.42-0.13-0.82-0.26-1.23-0.4l-0.16-0.06    c-0.79-0.27-1.49-0.53-2.14-0.79c-0.48-0.2-0.96-0.41-1.45-0.63c-0.65-0.3-1.3-0.62-1.94-0.96c-0.5-0.26-1-0.53-1.49-0.82    c-0.59-0.35-1.18-0.73-1.77-1.12l-0.12-0.08c-0.45-0.3-0.9-0.6-1.34-0.92c-0.57-0.42-1.12-0.86-1.66-1.31l-0.29-0.23    c-0.32-0.26-0.64-0.52-0.95-0.8c-0.15-0.12-0.29-0.24-0.43-0.37c-24.65-22.57-37.15-43.88-37.15-63.31    c0-21.2,17.24-38.44,38.43-38.44c9.17,0,17.84,3.21,24.7,9c6.86-5.79,15.53-9,24.7-9C386.33,139.99,403.58,157.23,403.58,178.43z"/>
<path class="st6" d="M391.7,209.57c0,1.84-0.74,3.65-2.05,4.95c-1.3,1.3-3.1,2.05-4.95,2.05c-0.45,0-0.91-0.05-1.36-0.14    c-0.45-0.09-0.89-0.22-1.31-0.4c-0.43-0.17-0.83-0.39-1.21-0.64c-0.09-0.06-0.17-0.14-0.25-0.21c-0.27-0.2-0.54-0.4-0.78-0.63    c-0.01-0.01-0.03-0.02-0.04-0.03c-1.3-1.31-2.05-3.11-2.05-4.95c0-0.46,0.05-0.92,0.14-1.37c0.09-0.45,0.23-0.89,0.4-1.31    c0.18-0.42,0.39-0.83,0.64-1.21c0.26-0.38,0.55-0.74,0.87-1.06c1.31-1.31,3.11-2.05,4.95-2.05c0.97,0,1.92,0.21,2.79,0.59    c0.31,0.13,0.61,0.29,0.89,0.47c0.46,0.28,0.89,0.61,1.27,0.99c0.33,0.32,0.62,0.68,0.87,1.06c0.26,0.38,0.47,0.79,0.65,1.21    c0.17,0.42,0.31,0.86,0.4,1.31C391.66,208.65,391.7,209.11,391.7,209.57z"/>
<path class="st6" d="M208.5,294.68c-3.32,3.55-7.02,7.19-10.98,10.82c-0.12,0.11-0.27,0.23-0.42,0.35    c-0.3,0.27-0.62,0.53-0.94,0.79l-0.26,0.21c-0.57,0.47-1.12,0.92-1.69,1.33c-0.45,0.33-0.9,0.63-1.36,0.94l-0.11,0.07    c-0.58,0.38-1.16,0.76-1.76,1.11c-0.49,0.29-0.99,0.56-1.5,0.83c-0.63,0.33-1.28,0.65-1.93,0.95c-0.49,0.23-0.97,0.44-1.46,0.63    c-0.64,0.27-1.34,0.53-2.13,0.8l-0.16,0.05c-0.41,0.14-0.81,0.28-1.23,0.4c-0.86,0.26-1.7,0.46-2.33,0.61l-0.28,0.06    c-0.33,0.08-0.67,0.16-1,0.23c-0.98,0.19-1.89,0.31-2.65,0.4l-0.17,0.03c-0.28,0.04-0.57,0.08-0.86,0.11    c-1.31,0.13-2.52,0.19-3.71,0.19c-0.01,0-0.01,0-0.02,0c-1.2,0-2.41-0.06-3.71-0.19c-0.29-0.03-0.57-0.07-0.85-0.11l-0.17-0.02    c-0.72-0.09-1.66-0.22-2.66-0.41c-0.33-0.07-0.66-0.14-0.99-0.22l-0.27-0.07c-0.64-0.15-1.48-0.35-2.36-0.61    c-0.4-0.12-0.8-0.26-1.21-0.39l-0.16-0.06c-0.78-0.26-1.49-0.53-2.15-0.8c-0.48-0.19-0.96-0.4-1.43-0.62    c-0.67-0.31-1.33-0.63-1.98-0.97c-0.49-0.26-0.97-0.53-1.45-0.81c-0.62-0.36-1.21-0.74-1.8-1.13l-0.1-0.07    c-0.46-0.3-0.91-0.6-1.35-0.92c-0.58-0.43-1.14-0.89-1.7-1.35l-0.25-0.2c-0.32-0.26-0.64-0.52-0.95-0.79    c-0.14-0.11-0.27-0.23-0.4-0.35c-24.68-22.59-37.19-43.9-37.19-63.34c0-21.19,17.25-38.43,38.44-38.43    c9.17,0,17.84,3.21,24.7,8.99c6.86-5.78,15.53-8.99,24.7-8.99c3.33,0,6.12,2.33,6.82,5.45c0.07,0.33,0.12,0.66,0.15,1    c0.01,0.18,0.03,0.36,0.03,0.55c0,3.86-3.14,7-7,7c-7.53,0-14.52,3.4-19.2,9.35c-1.33,1.68-3.36,2.67-5.5,2.67    c-2.15,0-4.17-0.99-5.5-2.67c-4.68-5.95-11.68-9.35-19.2-9.35c-13.47,0-24.44,10.96-24.44,24.43c0,15.32,10.94,33.11,32.51,52.89    c0.1,0.09,0.21,0.18,0.31,0.27c0.18,0.16,0.35,0.3,0.53,0.44l0.32,0.27c0.36,0.29,0.72,0.59,1.08,0.86    c0.27,0.19,0.54,0.37,0.81,0.55l0.11,0.07c0.38,0.25,0.76,0.5,1.14,0.72c0.3,0.18,0.61,0.34,0.93,0.51    c0.41,0.22,0.83,0.43,1.25,0.62c0.29,0.13,0.59,0.26,0.9,0.39c0.45,0.18,0.9,0.35,1.36,0.5l0.19,0.07    c0.22,0.08,0.45,0.15,0.68,0.22c0.5,0.15,1,0.27,1.5,0.39l0.42,0.1c0.13,0.03,0.26,0.06,0.39,0.09c0.56,0.11,1.17,0.19,1.68,0.25    c0.18,0.02,0.36,0.05,0.53,0.08l0.17,0.02c0.79,0.08,1.54,0.12,2.26,0.12h0.14c0.72,0,1.47-0.04,2.3-0.12l0.13-0.03    c0.17-0.02,0.35-0.05,0.52-0.07c0.53-0.06,1.14-0.14,1.69-0.25c0.13-0.03,0.27-0.06,0.4-0.1l0.41-0.09c0.5-0.12,1-0.24,1.49-0.38    c0.24-0.08,0.47-0.16,0.71-0.24l0.17-0.06c0.45-0.15,0.9-0.31,1.35-0.5c0.31-0.12,0.62-0.26,0.93-0.4c0.4-0.19,0.81-0.39,1.22-0.6    c0.32-0.17,0.63-0.34,0.94-0.52c0.38-0.23,0.75-0.47,1.12-0.71l0.12-0.08c0.27-0.18,0.55-0.36,0.82-0.56    c0.35-0.26,0.69-0.54,1.04-0.83l0.36-0.29c0.17-0.14,0.34-0.27,0.51-0.42c0.12-0.11,0.22-0.2,0.33-0.28    c3.67-3.37,7.06-6.71,10.1-9.96c2.46-2.62,6.48-2.93,9.3-0.81c0.2,0.15,0.4,0.32,0.59,0.49c0.06,0.06,0.11,0.11,0.16,0.17    C211,287.61,211.09,291.91,208.5,294.68z"/>
<path class="st6" d="M315.32,109.37c0,0.17-0.01,0.33-0.03,0.5c-0.12,1.66-0.84,3.26-2.02,4.44c-0.32,0.33-0.68,0.62-1.06,0.88    c-0.38,0.25-0.79,0.46-1.21,0.64c-0.43,0.17-0.87,0.31-1.31,0.4c-0.45,0.09-0.91,0.14-1.37,0.14c-0.46,0-0.92-0.05-1.37-0.14    c-0.45-0.09-0.89-0.23-1.31-0.4c-0.42-0.18-0.83-0.39-1.21-0.64c-0.38-0.26-0.74-0.55-1.06-0.88c-0.32-0.32-0.62-0.68-0.87-1.06    s-0.47-0.79-0.64-1.21c-0.18-0.42-0.31-0.86-0.4-1.31c-0.06-0.28-0.09-0.57-0.11-0.86c-0.02-0.17-0.03-0.33-0.03-0.5    s0.01-0.33,0.03-0.5c0.02-0.29,0.05-0.58,0.11-0.87c0.09-0.45,0.22-0.89,0.4-1.31c0.17-0.42,0.39-0.83,0.64-1.21    s0.55-0.74,0.87-1.06c0.32-0.33,0.68-0.62,1.06-0.87c0.38-0.26,0.79-0.47,1.21-0.65c0.42-0.17,0.86-0.31,1.31-0.4    c0.9-0.18,1.83-0.18,2.74,0c0.44,0.09,0.88,0.23,1.31,0.4c0.42,0.18,0.83,0.39,1.21,0.65c0.38,0.25,0.74,0.54,1.06,0.87    c1.18,1.18,1.9,2.78,2.02,4.45C315.31,109.04,315.32,109.2,315.32,109.37z"/>
<path class="st6" d="M299.62,309.94v22.44c0,11.49-9.34,20.83-20.83,20.83H142.33l-54.38,54.37c-1.34,1.34-3.13,2.05-4.95,2.05    c-0.9,0-1.81-0.17-2.68-0.53c-2.61-1.08-4.32-3.63-4.32-6.47v-29.45c0-3.36,2.36-6.16,5.52-6.83c0.17-0.03,0.33-0.07,0.5-0.09    c0.16-0.03,0.33-0.05,0.5-0.06c0.16-0.01,0.32-0.02,0.48-0.02c3.87,0,7,3.13,7,7v12.56l44.48-44.48c1.31-1.32,3.09-2.05,4.95-2.05    h139.36c3.77,0,6.83-3.06,6.83-6.83v-22.44c0-3.45,2.49-6.31,5.77-6.88c0.17-0.03,0.33-0.06,0.5-0.08    c0.16-0.02,0.33-0.02,0.5-0.03c0.08,0,0.15-0.01,0.23-0.01C296.49,302.94,299.62,306.08,299.62,309.94z"/>
<path class="st3" d="M392.53,197.5l-4.15,6.13c-0.28-0.18-0.58-0.34-0.89-0.47c-0.87-0.38-1.82-0.59-2.79-0.59    c-1.84,0-3.64,0.74-4.95,2.05c-0.32,0.32-0.61,0.68-0.87,1.06c-0.25,0.38-0.46,0.79-0.64,1.21c-0.17,0.42-0.31,0.86-0.4,1.31    c-0.09,0.45-0.14,0.91-0.14,1.37c0,1.84,0.75,3.64,2.05,4.95c0.01,0.01,0.03,0.02,0.04,0.03c0.24,0.23,0.51,0.43,0.78,0.63    l-4.22,6.24c-0.25-0.23-0.52-0.43-0.8-0.61c-2.77-1.79-6.51-1.41-8.86,1.08c-2.93,3.09-6.16,6.26-9.61,9.43    c-0.11,0.09-0.22,0.18-0.33,0.28c-0.17,0.15-0.34,0.29-0.52,0.43l-0.34,0.27c-0.35,0.29-0.7,0.58-1.06,0.85    c-0.27,0.19-0.54,0.37-0.81,0.55l-0.12,0.08c-0.37,0.25-0.75,0.49-1.12,0.71c-0.31,0.18-0.62,0.35-0.94,0.52    c-0.41,0.22-0.83,0.42-1.24,0.61c-0.3,0.14-0.6,0.27-0.91,0.4c-0.45,0.18-0.91,0.35-1.36,0.5l-0.17,0.06    c-0.24,0.08-0.47,0.16-0.71,0.23c-0.49,0.15-0.99,0.27-1.49,0.38l-0.41,0.1c-0.13,0.03-0.26,0.07-0.4,0.09    c-0.55,0.11-1.16,0.19-1.68,0.26c-0.18,0.02-0.36,0.05-0.53,0.07l-0.13,0.02c-0.82,0.08-1.57,0.12-2.29,0.12h-0.15    c-0.72,0-1.47-0.04-2.26-0.11l-0.17-0.03c-0.17-0.03-0.35-0.05-0.53-0.07c-0.52-0.07-1.12-0.15-1.68-0.26    c-0.13-0.02-0.27-0.06-0.4-0.09l-0.41-0.1c-0.5-0.11-1-0.23-1.49-0.38c-0.24-0.07-0.47-0.15-0.71-0.23l-0.17-0.06    c-0.45-0.15-0.9-0.32-1.35-0.5c-0.31-0.13-0.62-0.26-0.92-0.4c-0.41-0.19-0.82-0.39-1.24-0.61c-0.31-0.17-0.62-0.34-0.93-0.52    c-0.38-0.22-0.76-0.46-1.12-0.71l-0.13-0.08c-0.27-0.18-0.54-0.36-0.81-0.55c-0.35-0.26-0.69-0.55-1.07-0.85l-0.33-0.28    c-0.18-0.14-0.35-0.27-0.51-0.42c-0.11-0.09-0.21-0.18-0.33-0.28c-21.57-19.78-32.5-37.57-32.5-52.89    c0-13.48,10.96-24.44,24.43-24.44c7.53,0,14.52,3.41,19.2,9.35c1.33,1.69,3.36,2.67,5.5,2.67c2.15,0,4.17-0.98,5.5-2.67    c4.68-5.94,11.68-9.35,19.2-9.35c13.47,0,24.44,10.96,24.44,24.44c0,3.33-0.54,6.84-1.6,10.44c-0.98,3.31,0.61,6.76,3.6,8.24    C391.88,197.26,392.2,197.39,392.53,197.5z"/>
<path class="st3" d="M214.6,277.99l-6.26,6.96c-0.05-0.06-0.1-0.11-0.16-0.17c-0.19-0.17-0.39-0.34-0.59-0.49    c-2.82-2.12-6.84-1.81-9.3,0.81c-3.04,3.25-6.43,6.59-10.1,9.96c-0.11,0.08-0.21,0.17-0.33,0.28c-0.17,0.15-0.34,0.28-0.51,0.42    l-0.36,0.29c-0.35,0.29-0.69,0.57-1.04,0.83c-0.27,0.2-0.55,0.38-0.82,0.56l-0.12,0.08c-0.37,0.24-0.74,0.48-1.12,0.71    c-0.31,0.18-0.62,0.35-0.94,0.52c-0.41,0.21-0.82,0.41-1.22,0.6c-0.31,0.14-0.62,0.28-0.93,0.4c-0.45,0.19-0.9,0.35-1.35,0.5    l-0.17,0.06c-0.24,0.08-0.47,0.16-0.71,0.24c-0.49,0.14-0.99,0.26-1.49,0.38l-0.41,0.09c-0.13,0.04-0.27,0.07-0.4,0.1    c-0.55,0.11-1.16,0.19-1.69,0.25c-0.17,0.02-0.35,0.05-0.52,0.07l-0.13,0.03c-0.83,0.08-1.58,0.12-2.3,0.12h-0.14    c-0.72,0-1.47-0.04-2.26-0.12l-0.17-0.02c-0.17-0.03-0.35-0.06-0.53-0.08c-0.51-0.06-1.12-0.14-1.68-0.25    c-0.13-0.03-0.26-0.06-0.39-0.09l-0.42-0.1c-0.5-0.12-1-0.24-1.5-0.39c-0.23-0.07-0.46-0.14-0.68-0.22l-0.19-0.07    c-0.46-0.15-0.91-0.32-1.36-0.5c-0.31-0.13-0.61-0.26-0.9-0.39c-0.42-0.19-0.84-0.4-1.25-0.62c-0.32-0.17-0.63-0.33-0.93-0.51    c-0.38-0.22-0.76-0.47-1.14-0.72l-0.11-0.07c-0.27-0.18-0.54-0.36-0.81-0.55c-0.36-0.27-0.72-0.57-1.08-0.86l-0.32-0.27    c-0.18-0.14-0.35-0.28-0.53-0.44c-0.1-0.09-0.21-0.18-0.31-0.27c-21.57-19.78-32.51-37.57-32.51-52.89    c0-13.47,10.97-24.43,24.44-24.43c7.52,0,14.52,3.4,19.2,9.35c1.33,1.68,3.35,2.67,5.5,2.67c2.14,0,4.17-0.99,5.5-2.67    c4.68-5.95,11.67-9.35,19.2-9.35c3.86,0,7-3.14,7-7c0-0.19-0.02-0.37-0.03-0.55c-0.03-0.34-0.08-0.67-0.15-1h9.3v59.48    c0,2.97,0.63,5.8,1.76,8.36c0.07,0.16,0.14,0.33,0.22,0.5C214.44,277.68,214.52,277.83,214.6,277.99z"/>
<path class="st6" d="M468.5,123.19v145.47c0,11.48-9.34,20.82-20.82,20.82H436v49.43c0,2.83-1.71,5.38-4.32,6.46    c-0.87,0.36-1.78,0.54-2.68,0.54c-1.82,0-3.61-0.72-4.95-2.06l-54.38-54.37H233.21c-8.13,0-15.17-4.69-18.61-11.49    c-0.08-0.16-0.16-0.31-0.24-0.47c-0.08-0.17-0.15-0.34-0.22-0.5c-1.13-2.56-1.76-5.39-1.76-8.36V180.1H64.32    c-3.76,0-6.82,3.06-6.82,6.82v145.46c0,3.77,3.06,6.83,6.82,6.83H83c3.87,0,7,3.13,7,7c0,3.86-3.13,7-7,7H64.32    c-11.48,0-20.82-9.34-20.82-20.83V186.92c0-11.48,9.34-20.82,20.82-20.82h148.06v-42.91c0-11.48,9.34-20.82,20.83-20.82h46.1    c3.69,0,6.72,2.86,6.97,6.5c0.02,0.17,0.03,0.33,0.03,0.5s-0.01,0.33-0.03,0.5c-0.25,3.63-3.28,6.5-6.97,6.5h-46.1    c-3.77,0-6.83,3.06-6.83,6.82v145.47c0,3.76,3.06,6.82,6.83,6.82h139.36c1.86,0,3.64,0.73,4.95,2.05L422,322.01v-39.53    c0-3.87,3.13-7,7-7h18.68c3.76,0,6.82-3.06,6.82-6.82V123.19c0-3.76-3.06-6.82-6.82-6.82H333.06c-3.69,0-6.72-2.87-6.97-6.5    c-0.02-0.17-0.03-0.33-0.03-0.5s0.01-0.33,0.03-0.5c0.25-3.64,3.28-6.5,6.97-6.5h114.62C459.16,102.37,468.5,111.71,468.5,123.19z    "/>
</g>
</g>
</svg>